<svg width="50" height="50" viewBox="0 0 50 50" fill="none" xmlns="http://www.w3.org/2000/svg">
<circle cx="25" cy="25" r="24" stroke="black" stroke-width="2"/>
<path d="M36.1695 30.4429V33.4223C36.1707 33.6989 36.1097 33.9727 35.9903 34.2261C35.871 34.4795 35.6959 34.707 35.4764 34.894C35.2568 35.081 34.9976 35.2234 34.7154 35.312C34.4332 35.4006 34.1341 35.4335 33.8374 35.4086C30.5455 35.0765 27.3834 34.0322 24.6052 32.3596C22.0204 30.8348 19.8289 28.8004 18.1865 26.4008C16.3785 23.8098 15.2534 20.86 14.9022 17.7902C14.8755 17.5155 14.9107 17.2387 15.0055 16.9774C15.1003 16.7161 15.2527 16.4759 15.4529 16.2723C15.6532 16.0686 15.8969 15.9059 16.1686 15.7944C16.4403 15.683 16.7341 15.6254 17.0311 15.6251H20.2404C20.7596 15.6204 21.2629 15.791 21.6566 16.1053C22.0502 16.4196 22.3073 16.8561 22.38 17.3333C22.5155 18.2868 22.7667 19.223 23.1289 20.1241C23.2728 20.4795 23.3039 20.8659 23.2186 21.2373C23.1333 21.6087 22.9351 21.9496 22.6475 22.2196L21.2888 23.4809C22.8117 25.9673 25.0293 28.026 27.7075 29.4398L29.0661 28.1785C29.357 27.9115 29.7242 27.7274 30.1243 27.6482C30.5243 27.569 30.9405 27.5979 31.3234 27.7316C32.294 28.0678 33.3024 28.301 34.3295 28.4268C34.8491 28.4948 35.3237 28.7378 35.663 29.1096C36.0022 29.4813 36.1825 29.9558 36.1695 30.4429Z" stroke="black" stroke-width="2" stroke-linecap="round" stroke-linejoin="round"/>
</svg>
