<svg width="40" height="40" viewBox="0 0 40 40" fill="none" xmlns="http://www.w3.org/2000/svg">
<path d="M27.6424 13.5678C27.1833 13.1091 26.6382 12.7453 26.0383 12.4971C25.4384 12.2489 24.7954 12.1211 24.146 12.1211C23.4966 12.1211 22.8536 12.2489 22.2537 12.4971C21.6538 12.7453 21.1087 13.1091 20.6497 13.5678L19.6969 14.5191L18.7442 13.5678C17.8169 12.6418 16.5592 12.1216 15.2478 12.1216C13.9364 12.1216 12.6788 12.6418 11.7515 13.5678C10.8242 14.4937 10.3032 15.7496 10.3032 17.0592C10.3032 18.3687 10.8242 19.6246 11.7515 20.5506L12.7042 21.5019L19.6969 28.4847L26.6896 21.5019L27.6424 20.5506C28.1017 20.0921 28.466 19.5478 28.7146 18.9488C28.9632 18.3497 29.0911 17.7076 29.0911 17.0592C29.0911 16.4107 28.9632 15.7686 28.7146 15.1695C28.466 14.5705 28.1017 14.0262 27.6424 13.5678Z" stroke="white" stroke-width="2" stroke-linecap="round" stroke-linejoin="round"/>
<circle cx="20" cy="20" r="19" stroke="white" stroke-width="2"/>
</svg>
